# xmcd CD database file
#
# Track frame offsets:
#	150
#	5013
#	34529
#	55751
#	77464
#	102473
#	128855
#	145404
#	176416
#	203147
#	229433
#	240322
#
# Disc length: 3598 seconds
#
# Revision: 0
# Processed by: cddbd v1.5.2PL0 Copyright (c) Steve Scherf et al.
# Submitted via: CDex 1.70beta2
#
DISCID=990e0c0c
DTITLE=The Chemical Brothers - We Are The Night
DYEAR=2007
DGENRE=Big Beat
TTITLE0=No Path To Follow
TTITLE1=We Are The Night
TTITLE2=All Rights Reserved (The Klaxons)
TTITLE3=Saturate
TTITLE4=Do It Again (Ali Love)
TTITLE5=Das Spiegal
TTITLE6=The Salmon Dance (Fatlip)
TTITLE7=Burst Generator
TTITLE8=A Modern Midnight Conversation
TTITLE9=Battle Scars (Willie Mason)
TTITLE10=Harpoons
TTITLE11=The Pills Won't Help You Now (Midlake)
EXTD=YEAR: 2007
EXTT0=
EXTT1=
EXTT2=
EXTT3=
EXTT4=
EXTT5=
EXTT6=
EXTT7=
EXTT8=
EXTT9=
EXTT10=
EXTT11=
PLAYORDER=
